<?xml version="1.0" encoding="UTF-8" standalone="no"?>
<!-- Generator: Adobe Illustrator 16.0.3, SVG Export Plug-In . SVG Version: 6.00 Build 0)  -->

<svg
   version="1.1"
   id="logo"
   width="800"
   height="190.802"
   sodipodi:docname="AMD_logo.svg"
   inkscape:version="1.1 (c68e22c387, 2021-05-23)"
   xmlns:inkscape="http://www.inkscape.org/namespaces/inkscape"
   xmlns:sodipodi="http://sodipodi.sourceforge.net/DTD/sodipodi-0.dtd"
   xmlns="http://www.w3.org/2000/svg"
   xmlns:svg="http://www.w3.org/2000/svg">
  <defs
     id="defs15" />
  <sodipodi:namedview
     id="namedview13"
     pagecolor="#ffffff"
     bordercolor="#999999"
     borderopacity="1"
     inkscape:pageshadow="0"
     inkscape:pageopacity="0"
     inkscape:pagecheckerboard="0"
     showgrid="false"
     width="801px"
     height="192.80299px"
     inkscape:zoom="1.5087891"
     inkscape:cx="421.86148"
     inkscape:cy="56.66796"
     inkscape:window-width="1920"
     inkscape:window-height="1001"
     inkscape:window-x="-9"
     inkscape:window-y="-9"
     inkscape:window-maximized="1"
     inkscape:current-layer="logo" />
  <g
     id="g22">
    <path
       d="M 187.888,178.122 H 143.52 L 129.947,145.384 H 56.003 L 43.637,178.122 H 0 L 66.667,12.776 h 47.761 z M 91.155,52.286 66.912,116.53 h 50.913 z"
       id="path2" />
    <path
       d="m 349.056,13.438783 h 35.88 V 178.78478 H 343.717 V 75.504783 l -44.608,51.876997 h -6.301 L 248.203,75.504783 V 178.78278 H 206.984 V 13.438783 h 35.88 l 53.092,61.336 z"
       id="path4" />
    <path
       d="m 489.375,12.776 c 60.364,0 91.391,37.573 91.391,82.909 0,47.517 -30.058,82.437 -96,82.437 H 416.397 V 12.776 Z m -31.762,135.041 h 26.906 c 41.457,0 53.823,-28.129 53.823,-52.377 0,-28.368 -15.276,-52.363 -54.308,-52.363 h -26.422 v 104.74 z"
       id="path6" />
    <polygon
       points="748.028,137.235 748.028,51.981 662.769,51.981 610.797,0 800,0 800,189.21 "
       id="polygon8" />
    <polygon
       points="737.594,137.296 662.708,137.296 662.708,62.397 609.2,115.903 609.2,190.802 684.089,190.802 "
       id="polygon10" />
  </g>
</svg>
