<?xml version="1.0" encoding="UTF-8" standalone="no"?>
<svg
   viewBox="0 0 458.729 321.26701"
   version="1.1"
   id="svg15"
   sodipodi:docname="YouTube_logo.svg"
   width="458.729"
   height="321.267"
   inkscape:version="1.1 (c68e22c387, 2021-05-23)"
   xmlns:inkscape="http://www.inkscape.org/namespaces/inkscape"
   xmlns:sodipodi="http://sodipodi.sourceforge.net/DTD/sodipodi-0.dtd"
   xmlns="http://www.w3.org/2000/svg"
   xmlns:svg="http://www.w3.org/2000/svg">
  <defs
     id="defs19" />
  <sodipodi:namedview
     id="namedview17"
     pagecolor="#ffffff"
     bordercolor="#999999"
     borderopacity="1"
     inkscape:pageshadow="0"
     inkscape:pageopacity="0"
     inkscape:pagecheckerboard="0"
     showgrid="false"
     inkscape:zoom="0.6133289"
     inkscape:cx="74.185319"
     inkscape:cy="276.36069"
     inkscape:window-width="1920"
     inkscape:window-height="1001"
     inkscape:window-x="-9"
     inkscape:window-y="-9"
     inkscape:window-maximized="1"
     inkscape:current-layer="g267" />
  <g
     id="g267"
     transform="translate(257.50869,-3.6608931)">
    <g
       id="g10"
       transform="matrix(2.9419987,0,0,2.9420055,-751.87586,2.4840909)">
      <path
         d="m 320.52112,17.5 a 19.6,19.6 0 0 0 -13.8,-13.8 c -12.1,-3.3 -60.8,-3.3 -60.8,-3.3 0,0 -48.7,0.1 -60.8,3.4 a 19.6,19.6 0 0 0 -13.8,13.8 c -3.66,21.5 -5.08,54.26 0.1,74.9 a 19.6,19.6 0 0 0 13.8,13.8 c 12.1,3.3 60.8,3.3 60.8,3.3 0,0 48.7,0 60.8,-3.3 a 19.6,19.6 0 0 0 13.8,-13.8 c 3.86,-21.53 5.05,-54.27 -0.1,-75 z"
         fill="#ff0000"
         id="path2" />
      <path
         fill="#ffffff"
         d="M 225.8,78.4 266.2,55 225.8,31.6 Z"
         id="path4" />
    </g>
  </g>
</svg>
